<svg width="117" height="102" fill="none" xmlns="http://www.w3.org/2000/svg"><g clip-path="url(#clip0)"><path d="M8.738.884c-1.075 0-1.876.752-1.78 1.67l9.065 87.206c.095.918 1.02 1.872 2.057 2.118l38.47 9.161c1.036.247 2.731.247 3.768 0l38.586-9.175c1.036-.246 1.963-1.2 2.058-2.118l9.08-87.192c.097-.918-.705-1.67-1.781-1.67H8.738zm81.999 20l-.33 3.16-.239 2.289-.305 2.918c-.072.686-.14 1.248-.153 1.248H42.136c-1.075 0-1.876.752-1.78 1.67l.837 8.033c.096.918 1.054 1.67 2.13 1.67h43.486c.957 0 1.67.67 1.584 1.49a994.32 994.32 0 00-.332 3.16L85.367 72.42c-.097.918-.218 2.092-.27 2.607-.054.516-.945 1.14-1.981 1.386l-22.732 5.405-1.913.453c-.016.003-.877-.196-1.913-.443l-22.756-5.415c-1.036-.246-1.962-1.2-2.058-2.118l-1.464-14.1c-.096-.918.706-1.67 1.782-1.67h9.083c1.076 0 2.033.752 2.13 1.67l.574 5.52c.095.918 1.022 1.866 2.061 2.106l10.644 2.466c1.038.24 1.891.437 1.896.437.004 0 .857-.197 1.895-.438l10.664-2.47c1.037-.241 1.965-1.19 2.061-2.108l1.157-11.058c.096-.919-.705-1.67-1.78-1.67H31.481c-1.076 0-2.033-.752-2.129-1.67l-2.837-27.266-.33-3.16c-.084-.819.726-1.49 1.801-1.49h60.951c1.075 0 1.885.671 1.8 1.49z" fill="#000"/></g><defs><clipPath id="clip0"><path fill="#fff" transform="translate(0 .884)" d="M0 0h117v100.34H0z"/></clipPath></defs></svg>