<svg width="44" height="40" fill="none" xmlns="http://www.w3.org/2000/svg"><g filter="url(#filter0_d)" fill="#fff"><path d="M32.479 15.64c-.072-.782-.017-2.907 2.024-5.862a.56.56 0 00-.065-.715c-.832-.83-1.348-1.354-1.71-1.72a22.113 22.113 0 00-1.009-.991.565.565 0 00-.747-.007c-3.558 3.088-7.51 9.468-6.938 17.285.335 4.59 3.692 7.922 7.982 7.922 4.402 0 7.984-3.572 7.984-7.962 0-4.236-3.334-7.71-7.521-7.95zm-.463 14.79c-3.684 0-6.568-2.894-6.86-6.88v-.002c-.643-8.791 4.597-14.502 6.18-16.014.154.152.33.33.59.595.313.317.742.752 1.39 1.401-2.478 3.808-2.01 6.52-1.806 6.91a.583.583 0 00.506.309c3.782 0 6.859 3.069 6.859 6.84 0 3.772-3.077 6.84-6.86 6.84zM12.501 15.64c-.073-.78-.019-2.903 2.025-5.862a.56.56 0 00-.066-.715c-.83-.828-1.345-1.352-1.706-1.718a22.824 22.824 0 00-1.012-.993.566.566 0 00-.747-.008c-3.558 3.088-7.51 9.468-6.94 17.286.337 4.59 3.694 7.922 7.984 7.922 4.402 0 7.984-3.572 7.984-7.962 0-4.236-3.334-7.71-7.522-7.95zm-.462 14.79c-3.683 0-6.57-2.894-6.862-6.881-.641-8.794 4.599-14.503 6.182-16.015.155.152.332.332.592.596.313.318.74.753 1.388 1.4-2.478 3.809-2.01 6.521-1.806 6.91a.584.584 0 00.506.309c3.782 0 6.859 3.069 6.859 6.84 0 3.772-3.077 6.84-6.86 6.84z"/></g><defs><filter id="filter0_d" x="0" y=".927" width="44" height="43.905" filterUnits="userSpaceOnUse" color-interpolation-filters="sRGB"><feFlood flood-opacity="0" result="BackgroundImageFix"/><feColorMatrix in="SourceAlpha" values="0 0 0 0 0 0 0 0 0 0 0 0 0 0 0 0 0 0 127 0"/><feOffset dy="4"/><feGaussianBlur stdDeviation="2"/><feColorMatrix values="0 0 0 0 0 0 0 0 0 0 0 0 0 0 0 0 0 0 0.25 0"/><feBlend in2="BackgroundImageFix" result="effect1_dropShadow"/><feBlend in="SourceGraphic" in2="effect1_dropShadow" result="shape"/></filter></defs></svg>