<svg width="116" height="102" fill="none" xmlns="http://www.w3.org/2000/svg"><g clip-path="url(#clip0)" fill="#000"><path d="M58.153 84.958c-1.243 0-2.252.878-2.252 1.96 0 1.082 1.009 1.96 2.252 1.96 1.244 0 2.253-.878 2.253-1.96 0-1.082-1.01-1.96-2.253-1.96z"/><path d="M98.7 97.305h-6.758v-6.467c0-3.242-3.031-5.88-6.757-5.88h-2.253v-1.96c0-2.607-1.962-4.822-4.668-5.59l-4.171-40.462c2.499-.835 4.334-2.95 4.334-5.49 0-2.554-1.884-4.732-4.505-5.541v-9.352h2.252c1.244 0 2.253-.878 2.253-1.96 0-1.082-1.009-1.96-2.253-1.96h-2.413C72.683 6.052 66.171.884 58.153.884c-8.02 0-14.53 5.169-15.607 11.759h-2.413c-1.245 0-2.253.877-2.253 1.96 0 1.082 1.008 1.96 2.252 1.96h2.253v9.348c-2.58.792-4.505 2.946-4.505 5.546 0 2.499 1.802 4.637 4.335 5.487l-4.172 40.464c-2.706.768-4.668 2.983-4.668 5.59v1.96h-2.253c-3.726 0-6.758 2.638-6.758 5.88v6.467h-6.758c-1.244 0-2.252.877-2.252 1.96 0 1.082 1.008 1.959 2.253 1.959H98.7c1.244 0 2.253-.877 2.253-1.96 0-1.081-1.009-1.959-2.253-1.959zM58.153 4.804c5.508 0 10.01 3.412 11.039 7.839H47.115c1.028-4.427 5.531-7.84 11.038-7.84zm11.263 11.758v9.015h-9.01v-9.015h9.01zm-22.526 0h9.01v9.015h-9.01v-9.015zm-2.252 12.935h27.031c1.242 0 2.253.88 2.253 1.96 0 1.082-1.01 1.96-2.253 1.96H44.638c-1.242 0-2.253-.88-2.253-1.96 0-1.082 1.01-1.96 2.253-1.96zm25.083 8.918l1.114 10.812-26.554 11.551L45.5 48.952l24.22-10.537zm-23.748 5.949l.724-7.028h15.43l-16.154 7.028zm25.295 9.057l1.116 10.834-28.3 12.864h-1.488l1.212-11.753 27.46-11.945zM72.82 68.48l.89 8.64H53.814l19.006-8.64zm14.617 28.825H28.87v-6.467c0-1.08 1.01-1.96 2.252-1.96h17.926c1.244 0 2.253-.878 2.253-1.96 0-1.082-1.009-1.96-2.253-1.96H37.88v-1.96c0-1.08 1.01-1.96 2.252-1.96h4.501l.006.001h31.536c1.242 0 2.252.88 2.252 1.96v1.96H67.258c-1.244 0-2.252.877-2.252 1.96 0 1.081 1.008 1.959 2.252 1.959h17.927c1.242 0 2.252.88 2.252 1.96v6.467z"/><path d="M99.995 39.821L84.614 34.28c-1.15-.414-2.468.061-2.943 1.06-.476 1 .07 2.147 1.219 2.561l15.38 5.543c1.155.415 2.469-.065 2.944-1.061.476-1-.07-2.147-1.22-2.56zm1.219-27.128c-.476-1-1.794-1.475-2.943-1.061l-15.38 5.542c-1.15.414-1.696 1.56-1.22 2.56.475.999 1.79 1.476 2.943 1.061l15.38-5.542c1.15-.414 1.696-1.56 1.22-2.56zm-7.019 12.884h-9.01c-1.245 0-2.253.878-2.253 1.96 0 1.082 1.008 1.96 2.253 1.96h9.01c1.244 0 2.253-.878 2.253-1.96 0-1.082-1.009-1.96-2.253-1.96zm-60.778-8.403l-15.381-5.542c-1.15-.414-2.467.06-2.943 1.06-.476 1.001.07 2.147 1.22 2.561l15.38 5.543c1.154.415 2.468-.064 2.943-1.061.476-1-.07-2.147-1.22-2.56zm1.219 18.166c-.476-1-1.794-1.475-2.943-1.061l-15.381 5.542c-1.15.414-1.695 1.56-1.22 2.56.476 1 1.792 1.476 2.944 1.062l15.38-5.543c1.15-.414 1.696-1.56 1.22-2.56zm-3.514-9.763h-9.01c-1.244 0-2.253.878-2.253 1.96 0 1.082 1.009 1.96 2.253 1.96h9.01c1.244 0 2.253-.878 2.253-1.96 0-1.082-1.009-1.96-2.253-1.96z"/></g><defs><clipPath id="clip0"><path fill="#fff" transform="translate(.487 .884)" d="M0 0h115.333v100.34H0z"/></clipPath></defs></svg>