<svg width="33" height="26" fill="none" xmlns="http://www.w3.org/2000/svg"><path d="M7.318 0C3.283 0 0 3.572 0 7.962c0 4.236 3.055 7.71 6.893 7.95.067.78.017 2.906-1.855 5.862a.598.598 0 00.06.715c.766.833 1.24 1.358 1.57 1.725.434.48.632.7.922.985a.492.492 0 00.346.146.496.496 0 00.339-.137c3.261-3.088 6.884-9.468 6.36-17.286C14.328 3.332 11.25 0 7.318 0zm.623 24.018c-.14-.151-.3-.329-.536-.59-.287-.318-.681-.754-1.278-1.406 2.271-3.809 1.842-6.521 1.654-6.91a.53.53 0 00-.463-.31c-3.466 0-6.287-3.068-6.287-6.84 0-3.771 2.82-6.84 6.287-6.84 3.377 0 6.021 2.894 6.289 6.88.589 8.794-4.214 14.504-5.666 16.016zM32.948 7.922C32.64 3.331 29.562 0 25.631 0c-4.036 0-7.319 3.572-7.319 7.962 0 4.236 3.056 7.71 6.895 7.95.066.78.016 2.904-1.856 5.862a.598.598 0 00.06.715c.762.83 1.235 1.354 1.566 1.72.436.483.635.704.926.99a.494.494 0 00.346.146.49.49 0 00.338-.138c3.262-3.088 6.885-9.468 6.361-17.285zm-6.694 16.096a52.19 52.19 0 01-.541-.595c-.287-.318-.68-.753-1.274-1.401 2.271-3.81 1.843-6.521 1.655-6.91a.533.533 0 00-.463-.31c-3.467 0-6.288-3.068-6.288-6.84 0-3.771 2.82-6.84 6.288-6.84 3.376 0 6.021 2.894 6.289 6.881.588 8.792-4.215 14.503-5.666 16.015z" fill="#fff"/></svg>