<svg width="116" height="102" fill="none" xmlns="http://www.w3.org/2000/svg"><g clip-path="url(#clip0)" fill="#000"><path d="M115.44 58.493L98.363 8.728c-.597-1.742-1.942-3.178-3.784-4.043a8.865 8.865 0 00-5.973-.536L5.712 25.555c-2.009.518-3.665 1.684-4.662 3.283-.998 1.598-1.218 3.438-.62 5.18l17.076 49.764c.598 1.743 1.942 3.178 3.785 4.043a8.764 8.764 0 003.723.823 9.02 9.02 0 002.25-.286l29.062-7.505c1.053-.272 1.652-1.232 1.339-2.145-.314-.913-1.42-1.433-2.473-1.16L26.13 85.055a4.376 4.376 0 01-2.947-.264c-.908-.427-1.571-1.135-1.866-1.993L4.241 33.034a2.942 2.942 0 01.305-2.554c.492-.788 1.309-1.364 2.3-1.62L89.74 7.456a4.376 4.376 0 012.947.264c.908.426 1.57 1.134 1.865 1.993l17.077 49.765c.609 1.773-.56 3.645-2.606 4.173l-4.471 1.155c-1.052.271-1.651 1.232-1.338 2.144.313.913 1.419 1.433 2.472 1.162l4.472-1.155c4.146-1.07 6.516-4.868 5.282-8.463z"/><path d="M98.227 61.28c.313.913 1.42 1.433 2.472 1.16l5.512-1.423c.506-.13.931-.43 1.181-.832.251-.402.308-.875.158-1.313L91.518 12.154c-.313-.913-1.419-1.433-2.472-1.161l-79.388 20.5c-1.052.272-1.651 1.232-1.338 2.145l16.03 46.719c.257.748 1.048 1.233 1.905 1.233.188 0 .379-.024.568-.072l23.169-5.983c1.052-.272 1.651-1.232 1.338-2.145-.313-.913-1.42-1.433-2.473-1.161l-21.263 5.49-14.897-43.412L88.275 14.79l14.897 43.413-3.607.932c-1.052.271-1.651 1.232-1.338 2.145z"/><path d="M77.917 41.282c-1.264-1.392-3.077-2.274-5.106-2.482-2.029-.21-4.029.28-5.633 1.376L47.097 53.899c-1.605 1.096-2.621 2.67-2.862 4.429-.241 1.76.323 3.495 1.587 4.887L75.32 95.7c1.507 1.66 3.75 2.526 6.015 2.526 1.656 0 3.325-.463 4.724-1.42l20.081-13.723c1.605-1.096 2.621-2.67 2.862-4.429.24-1.76-.323-3.495-1.587-4.887L77.917 41.282zm22.895 30.787L74.964 89.733 52.329 64.807l25.848-17.664 22.635 24.926zM48.184 58.734c.115-.844.603-1.6 1.373-2.126L69.64 42.886a4.008 4.008 0 012.264-.684c.146 0 .293.008.44.023.974.1 1.844.523 2.45 1.191l.924 1.017-25.849 17.664-.923-1.016c-.607-.669-.877-1.502-.761-2.347zm56.871 19.514c-.116.844-.604 1.6-1.374 2.126L83.599 94.097c-1.59 1.086-3.902.848-5.155-.531l-1.02-1.124 25.849-17.664 1.02 1.124c.606.668.877 1.501.762 2.346z"/></g><defs><clipPath id="clip0"><path fill="#fff" transform="translate(.1 .874)" d="M0 0h115.667v100.34H0z"/></clipPath></defs></svg>