<svg width="43" height="36" fill="none" xmlns="http://www.w3.org/2000/svg"><path d="M37.175 3c1.687 0 2.13 1.276 1.632 4.272-.571 3.426-2.216 14.769-3.528 21.83-.502 2.702-1.407 3.867-2.724 3.867-.724 0-1.572-.352-2.546-.995-1.32-.872-7.984-5.279-9.431-6.314-1.32-.943-3.141-2.078-.857-4.312.813-.796 6.14-5.883 10.29-9.842.443-.423.072-1.068-.42-1.068a.625.625 0 00-.347.111c-5.594 3.71-13.351 8.859-14.338 9.53-.987.67-1.95 1.1-3.231 1.1-.655 0-1.394-.112-2.263-.362-1.943-.558-3.84-1.223-4.58-1.477-2.844-.976-2.17-2.241.594-3.457C16.504 11.01 30.839 5.068 32.818 4.246 34.746 3.445 36.178 3 37.175 3zm0-3c-1.368 0-3.015.441-5.506 1.474l-.3.124c-10.633 4.416-20.276 8.514-27.15 11.538-1.074.473-4.341 1.91-4.214 4.916.054 1.297.768 3.065 3.856 4.124l.228.078c.862.297 2.657.916 4.497 1.445 1.12.322 2.132.478 3.09.478a8.041 8.041 0 003.962-1.028 4.78 4.78 0 00.012.507c.182 2.312 1.97 3.58 3.038 4.338l.149.106c1.577 1.128 8.714 5.843 9.522 6.376 1.52 1.004 2.894 1.491 4.199 1.491 2.052 0 4.703-1.096 5.673-6.318.92-4.953 1.985-11.872 2.762-16.924.33-2.156.603-3.924.776-4.961.349-2.094.509-4.466-.948-6.185C40.208.859 39.08 0 37.175 0z" fill="#fff"/></svg>