<svg width="40" height="33" fill="none" xmlns="http://www.w3.org/2000/svg"><path d="M40 3.907a16.895 16.895 0 01-4.725 1.315A8.258 8.258 0 0038.883.619a16.238 16.238 0 01-5.2 2.016A8.16 8.16 0 0027.692 0c-4.54 0-8.196 3.742-8.196 8.329 0 .66.055 1.294.19 1.898C12.87 9.89 6.838 6.572 2.785 1.518a8.482 8.482 0 00-1.123 4.209 8.373 8.373 0 003.643 6.92c-1.317-.026-2.61-.414-3.705-1.026v.091c0 4.047 2.842 7.408 6.57 8.182a8.068 8.068 0 01-2.15.274c-.525 0-1.055-.03-1.552-.142 1.062 3.297 4.077 5.722 7.662 5.8a16.319 16.319 0 01-10.168 3.552c-.672 0-1.317-.03-1.962-.115A22.833 22.833 0 0012.58 33c15.09 0 23.34-12.692 23.34-23.694 0-.368-.013-.723-.03-1.076 1.627-1.173 2.995-2.638 4.11-4.323z" fill="#fff"/></svg>