<svg width="35" height="35" fill="none" xmlns="http://www.w3.org/2000/svg"><path d="M35 4.143a12.844 12.844 0 01-4.134 1.395c1.487-1.093 2.622-2.81 3.156-4.881a12.845 12.845 0 01-4.55 2.138C28.155 1.069 26.278 0 24.231 0c-3.973 0-7.17 3.968-7.17 8.833 0 .7.047 1.373.166 2.014C11.26 10.49 5.983 6.97 2.437 1.61a10.503 10.503 0 00-.982 4.464c0 3.058 1.28 5.77 3.187 7.34-1.153-.028-2.284-.44-3.242-1.089v.097c0 4.292 2.487 7.857 5.749 8.678a5.9 5.9 0 01-1.881.29c-.46 0-.924-.032-1.359-.15.93 3.497 3.568 6.068 6.705 6.152-2.442 2.35-5.541 3.766-8.897 3.766-.588 0-1.153-.032-1.717-.121C3.178 33.56 6.945 35 11.008 35 24.21 35 31.43 21.538 31.43 9.87c0-.39-.01-.767-.026-1.142 1.424-1.243 2.62-2.797 3.596-4.585z" fill="#FEFEFE"/></svg>