<svg width="44" height="33" fill="none" xmlns="http://www.w3.org/2000/svg"><path d="M43.763 29.581c-1.797-3.951-6.426-8.699-8.337-10.765-.523-.566-.58-1.544-.103-2.17 3.647-4.788 6.564-10.29 7.568-13.615.443-1.468-.474-3.02-1.766-3.02h-3.753c-1.237 0-1.961.542-2.306 1.406-3.031 7.589-5.631 10.873-7.451 12.793-1.019 1.075-2.608.184-2.608-1.452V2.642c0-1.402-.938-2.536-2.095-2.536L16.056.011c-.863 0-1.356 1.194-.838 2.03l1.132 1.986c.426.688.656 1.525.656 2.384L17 15.352c0 1.555-1.543 2.315-2.459 1.226C11.442 12.89 8.753 5.36 7.785 1.759 7.505.717 6.706.013 5.8.011L2.103 0C.716 0-.297 1.607.08 3.224c3.378 14.487 10.31 28.27 22.661 29.764 1.217.146 2.267-1.051 2.267-2.533v-4.7c0-1.347.865-2.505 1.977-2.54h.117c3.267 0 6.926 5.81 8.206 8.526.368.782 1.056 1.259 1.8 1.259h4.973c1.45 0 2.382-1.88 1.683-3.419z" fill="#fff"/></svg>