<svg width="44" height="28" fill="none" xmlns="http://www.w3.org/2000/svg"><path d="M43.763 24.211c-1.797-3.234-6.426-7.12-8.337-8.811a1.242 1.242 0 01-.103-1.776c3.647-3.919 6.564-8.422 7.568-11.143.443-1.202-.474-2.472-1.766-2.472h-3.753c-1.237 0-1.96.444-2.306 1.151-3.03 6.211-5.63 8.899-7.45 10.47-1.02.88-2.609.151-2.609-1.188v-8.28A2.084 2.084 0 0022.912.087L16.056.009c-.863 0-1.356.977-.838 1.662l1.132 1.625c.426.563.656 1.248.656 1.951L17 12.565c0 1.273-1.543 1.895-2.459 1.003C11.442 10.55 8.753 4.387 7.785 1.44A2.087 2.087 0 005.8.009L2.103 0C.716 0-.297 1.315.08 2.639c3.378 11.857 10.31 23.137 22.661 24.36 1.217.12 2.267-.86 2.267-2.073V21.08c0-1.103.865-2.051 1.977-2.079l.117-.001c3.267 0 6.926 4.755 8.206 6.979a2.07 2.07 0 001.8 1.03h4.973c1.451 0 2.382-1.539 1.683-2.798z" fill="#fff"/></svg>