<svg width="117" height="102" viewBox="0 0 117 102" fill="none" xmlns="http://www.w3.org/2000/svg">
<g clip-path="url(#clip0)">
<path d="M8.73816 0.884354C7.66285 0.884354 6.86164 1.63586 6.95705 2.55437L16.0225 89.7597C16.1179 90.6782 17.0435 91.6316 18.0801 91.8784L56.5494 101.039C57.5856 101.286 59.281 101.286 60.3176 101.039L98.9038 91.864C99.94 91.6175 100.867 90.6641 100.962 89.746L110.042 2.55437C110.139 1.63586 109.337 0.884354 108.261 0.884354H8.73816ZM90.7365 20.8846C90.6509 21.7039 90.5027 23.1261 90.4073 24.0446L90.1684 26.3326C90.0722 27.2508 89.9353 28.564 89.863 29.2505C89.791 29.9373 89.7226 30.499 89.7101 30.499C89.698 30.499 88.808 30.499 87.7327 30.499H60.4549C59.3796 30.499 58.4908 30.499 58.479 30.499C58.4673 30.499 57.5777 30.499 56.5024 30.499H42.1362C41.0609 30.499 40.2597 31.2505 40.3551 32.169L41.1931 40.2022C41.2885 41.1203 42.2469 41.8722 43.3222 41.8722H56.5028C57.5781 41.8722 58.4677 41.8722 58.4794 41.8722C58.4912 41.8722 59.38 41.8722 60.4553 41.8722H83.1108C84.1861 41.8722 85.8503 41.8722 86.8087 41.8722C87.7663 41.8722 88.4795 42.5425 88.3927 43.3618C88.3055 44.181 88.1565 45.6036 88.0611 46.5217L85.3666 72.4197C85.2704 73.3382 85.1488 74.5116 85.0964 75.0274C85.0428 75.5428 84.1517 76.1662 83.1155 76.4127L60.3841 81.8181C59.3479 82.0642 58.4869 82.2681 58.4708 82.2711C58.4548 82.2742 57.5942 82.0746 56.5576 81.8281L33.802 76.413C32.7658 76.1665 31.8398 75.2131 31.7444 74.2946L30.2796 60.1951C30.1842 59.2766 30.9862 58.5251 32.0615 58.5251H34.1382C35.2136 58.5251 36.9732 58.5251 38.0485 58.5251H41.1454C42.2207 58.5251 43.1783 59.2766 43.2745 60.1951L43.8489 65.7145C43.9443 66.633 44.8714 67.581 45.91 67.8215L56.554 70.2866C57.5918 70.527 58.445 70.7239 58.4497 70.7239C58.4544 70.7239 59.3072 70.5267 60.3454 70.2863L71.0086 67.8151C72.0464 67.5747 72.9743 66.6263 73.0705 65.7081L74.2267 54.6498C74.3229 53.7313 73.5217 52.9798 72.4464 52.9798H60.4553C59.38 52.9798 58.4912 52.9798 58.4794 52.9798C58.4677 52.9798 57.5781 52.9798 56.5028 52.9798H31.4816C30.4063 52.9798 29.4487 52.228 29.3533 51.3098L26.516 24.0443C26.4206 23.1257 26.2724 21.7039 26.1868 20.8843C26.1019 20.0651 26.9117 19.3947 27.9871 19.3947H56.5028C57.5781 19.3947 58.4677 19.3947 58.4794 19.3947C58.4912 19.3947 59.38 19.3947 60.4553 19.3947H88.9366C90.0116 19.3947 90.8217 20.0651 90.7365 20.8846Z" fill="black"/>
</g>
<defs>
<clipPath id="clip0">
<rect width="117" height="100.34" fill="white" transform="translate(0 0.884354)"/>
</clipPath>
</defs>
</svg>
