<svg width="35" height="35" viewBox="0 0 35 35" fill="none" xmlns="http://www.w3.org/2000/svg">
<path d="M35 4.14346C33.6984 4.84615 32.3116 5.31192 30.8656 5.53808C32.3531 4.445 33.4884 2.72731 34.0222 0.656923C32.6353 1.67462 31.1041 2.39346 29.4722 2.79462C28.1553 1.06885 26.2784 0 24.2309 0C20.2584 0 17.0603 3.96846 17.0603 8.83346C17.0603 9.53346 17.1084 10.2065 17.2266 10.8473C11.2613 10.4892 5.98281 6.97038 2.43687 1.61C1.81781 2.93192 1.45469 4.445 1.45469 6.07385C1.45469 9.13231 2.73438 11.8435 4.64187 13.4131C3.48906 13.3862 2.35812 12.9742 1.4 12.3254C1.4 12.3523 1.4 12.3873 1.4 12.4223C1.4 16.7138 3.88719 20.2785 7.14875 21.0996C6.56469 21.2962 5.92812 21.3904 5.2675 21.3904C4.80812 21.3904 4.34437 21.3581 3.90906 21.2396C4.83875 24.7369 7.47688 27.3081 10.6138 27.3915C8.1725 29.7419 5.07281 31.1581 1.71719 31.1581C1.12875 31.1581 0.564375 31.1258 0 31.0369C3.17844 33.5596 6.94531 35 11.0075 35C24.2112 35 31.43 21.5385 31.43 9.87C31.43 9.47962 31.4191 9.10269 31.4037 8.72846C32.8278 7.48462 34.0244 5.93115 35 4.14346Z" fill="#FEFEFE"/>
</svg>
