<svg width="134" height="24" fill="none" xmlns="http://www.w3.org/2000/svg"><g filter="url(#filter0_d)"><path d="M9.566 11.445c.215-.039.323-.146.323-.322 0-.182-.059-.384-.176-.605a2.152 2.152 0 00-.498-.645c-.58-.52-1.364-.781-2.354-.781a3.77 3.77 0 00-1.367.244c-.45-.228-.807-.59-1.074-1.084a3.32 3.32 0 01-.4-1.602c0-1.497.625-2.653 1.875-3.466 1.074-.697 2.399-1.045 3.974-1.045 1.172 0 2.158.127 2.96.38.8.248 1.454.567 1.962.958.15.43.225.875.225 1.337 0 .463-.062.883-.186 1.26-.124.378-.303.68-.537.908-.221-.162-.622-.328-1.201-.498-.58-.169-1.107-.254-1.582-.254-.476 0-.794.03-.957.088-.157.059-.235.15-.235.274 0 .058.01.114.03.166.227-.059.52-.088.879-.088 1.27 0 2.304.3 3.105.898.944.717 1.416 1.79 1.416 3.223 0 1.263-.511 2.311-1.533 3.144-1.107.893-2.595 1.338-4.463 1.338-1.029 0-1.92-.078-2.676-.234a7.909 7.909 0 01-2.207-.8c-.488-.71-.732-1.43-.732-2.159 0-.736.25-1.344.752-1.826.501-.482 1.116-.723 1.845-.723.736 0 1.335.15 1.797.45.469.299.814.787 1.035 1.464zm11.075-1.22v.234c0 .11.003.189.01.234a.584.584 0 00.224.05c.189 0 .283-.128.283-.382 0-.664.078-1.914.235-3.75.084-.996.136-1.582.156-1.757.612-.41 1.344-.616 2.197-.616.86 0 1.524.228 1.992.684.417.417.625.957.625 1.621 0 .45-.062.915-.185 1.396-.606 2.338-1.208 4.177-1.807 5.518-.319.697-.804 1.172-1.455 1.426-.482.195-1.169.293-2.06.293a8.6 8.6 0 01-1.417-.117c-.462-.079-.817-.17-1.064-.274-.944-1.927-1.722-4.06-2.334-6.396-.202-.202-.374-.485-.518-.85a3.072 3.072 0 01-.214-1.133c0-.807.195-1.5.586-2.08h2.431c.853 0 1.488.241 1.904.723.313.364.515.895.606 1.592a33.51 33.51 0 00-.195 3.584zm11.67 5.078c-1.804 0-3.226-.502-4.268-1.504-1.068-1.01-1.602-2.39-1.602-4.14 0-1.759.55-3.152 1.65-4.18 1.016-.958 2.302-1.436 3.858-1.436s2.803.43 3.74 1.289c.944.853 1.416 1.904 1.416 3.154 0 1.114-.387 1.954-1.162 2.52-.716.534-1.692.8-2.93.8-.924 0-1.705-.191-2.343-.575-.052.039-.078.11-.078.214 0 .196.257.375.771.537.515.176 1.097.264 1.748.264a6.1 6.1 0 001.787-.244c.54-.17.974-.368 1.3-.596.155.137.28.39.37.762.098.365.147.7.147 1.006 0 .3-.03.566-.088.8-.508.43-1.029.736-1.563.919-.755.273-1.673.41-2.754.41zm-.127-6.612c.325 0 .488-.123.488-.37 0-.235-.173-.352-.518-.352-.345 0-.543.185-.595.556.182.111.39.166.625.166zm8.29 6.436c-.774 0-1.393-.14-1.855-.42-.514-.293-.771-.726-.771-1.299v-5.03c-.384-.54-.576-1.204-.576-1.991 0-.795.192-1.481.576-2.06h1.494c.768 0 1.318.247 1.65.741a2.627 2.627 0 00-.43.694c-.123.28-.185.481-.185.605 0 .117.03.205.088.264a.395.395 0 00.273.088c.228-.905.661-1.57 1.3-1.992.527-.359 1.178-.538 1.952-.538.964 0 1.719.206 2.266.616.195.52.293 1.159.293 1.914 0 .748-.15 1.429-.45 2.04-.22.118-.527.219-.917.303A6.01 6.01 0 0144 9.18c-.397 0-.755-.026-1.074-.078a6.34 6.34 0 01-.684-.157c-.052.052-.078.127-.078.225s.062.172.186.225a5.2 5.2 0 00.644.156v4.902c-.71.45-1.55.674-2.52.674zM49.88 4.004c.39 0 .84.085 1.348.254.026.045.061.117.107.215a21.391 21.391 0 01.361.684c.046.084.114.217.205.4.098.175.16.296.186.361.032.059.068.127.107.205.04.072.069.127.088.166l.625-2.04c.222-.08.502-.138.84-.177.339-.045.632-.068.879-.068.931 0 1.647.257 2.148.771.502.515.752 1.166.752 1.954 0 .787-.29 1.48-.869 2.08-.488.507-1.126.888-1.914 1.142 0 .221.11.332.332.332.189 0 .515-.123.977-.37.17.246.4.566.693.956.293.39.612.82.957 1.29-.026.917-.293 1.65-.8 2.196-.508.547-1.15.82-1.924.82-.769 0-1.394-.204-1.875-.615-.482-.41-.827-.96-1.036-1.65l-.78 1.885c-.45.26-1.017.39-1.7.39-.814 0-1.504-.26-2.07-.78-.56-.528-.84-1.228-.84-2.1 0-1.075.566-1.973 1.699-2.696.163-.104.501-.273 1.016-.507-.052-.17-.163-.254-.332-.254-.254 0-.554.13-.899.39-.351-.215-.674-.55-.967-1.006a2.72 2.72 0 01-.43-1.474c0-.88.297-1.57.89-2.07.553-.456 1.295-.684 2.226-.684zm13.467 3.34c-.17.052-.254.153-.254.302v.05c0 .032.003.051.01.058.071-.007.166-.01.283-.01h.234c.742 0 1.436.114 2.08.342.651.221 1.182.58 1.592 1.074.456.56.684 1.266.684 2.12 0 1.327-.46 2.33-1.377 3.007-.918.677-2.145 1.016-3.682 1.016-1.536 0-2.74-.254-3.613-.762-.866-.508-1.3-1.253-1.3-2.236 0-.365.079-.697.235-.996.157-.306.332-.521.528-.645.358.3.875.56 1.552.781a7.187 7.187 0 002.168.323c.306 0 .46-.085.46-.254a.561.561 0 00-.03-.196c-.046.007-.1.01-.166.01h-.107c-1.38 0-2.484-.273-3.311-.82-.938-.619-1.406-1.491-1.406-2.617 0-1.127.42-2.038 1.26-2.735.93-.768 2.21-1.152 3.837-1.152.801 0 1.547.085 2.237.254.696.17 1.292.394 1.787.674.124.267.185.66.185 1.181 0 .795-.218 1.403-.654 1.826a4.997 4.997 0 00-1.22-.449 5.166 5.166 0 00-1.29-.185c-.384 0-.625.013-.722.039zm7.832 7.783c-.775 0-1.394-.14-1.856-.42-.514-.293-.771-.726-.771-1.299v-5.03c-.384-.54-.576-1.204-.576-1.991 0-.795.192-1.481.576-2.06h1.494c.768 0 1.318.247 1.65.741a2.63 2.63 0 00-.43.694c-.123.28-.185.481-.185.605 0 .117.03.205.088.264a.394.394 0 00.273.088c.228-.905.661-1.57 1.3-1.992.527-.359 1.178-.538 1.952-.538.964 0 1.72.206 2.266.616.195.52.293 1.159.293 1.914 0 .748-.15 1.429-.45 2.04-.22.118-.527.219-.917.303-.39.079-.785.118-1.182.118-.397 0-.755-.026-1.074-.078a6.34 6.34 0 01-.684-.157c-.052.052-.078.127-.078.225s.062.172.186.225c.13.045.345.097.644.156v4.902c-.71.45-1.55.674-2.52.674zm11.494-5.566v1.709c.045.045.12.068.225.068.104 0 .178-.036.224-.107.046-.072.069-.196.069-.372V9.463c0-.625-.027-1.039-.079-1.24-.052-.209-.15-.313-.293-.313a.32.32 0 00-.234.098c.059.644.088 1.162.088 1.553zm-3.653 4.326c-1.067-1.029-1.601-2.422-1.601-4.18 0-1.764.501-3.154 1.504-4.17 1.009-1.022 2.33-1.533 3.965-1.533 1.634 0 2.955.53 3.965 1.592 1.002 1.06 1.504 2.444 1.504 4.15 0 1.7-.486 3.05-1.456 4.053-.963 1.002-2.275 1.504-3.935 1.504-1.66 0-2.975-.472-3.946-1.416zm14.57-4.854h1.046V7.725h-.215a4.054 4.054 0 01-.83 1.123v.185zm.099 4.356h.79c.209 0 .359-.017.45-.05.09-.038.136-.1.136-.185a.557.557 0 00-.039-.224h-2.959c-1.093 0-1.93-.342-2.51-1.026-.527-.612-.79-1.438-.79-2.48 0-.54.045-1.013.136-1.416a19.793 19.793 0 002.686-2.822c.456-.586 1.13-1.573 2.021-2.96h2.49c.814 0 1.478.222 1.993.665.514.436.771 1.035.771 1.796v3.731h-.205c-.28 0-.42.11-.42.332v.127h1.573c.227.573.341 1.227.341 1.963 0 .508-.107.954-.322 1.338-.215.377-.54.615-.977.713v1.494c-.729.527-1.61.79-2.646.79-1.029 0-1.868-.243-2.52-.732V13.39zm17.324-3.223c0 .469.052.846.156 1.133a1.3 1.3 0 00.547.674c.006.032.01.094.01.185v.176c0 .898-.261 1.598-.782 2.1-.514.494-1.181.742-2.002.742-.813 0-1.474-.231-1.982-.694-.592-.527-.889-1.328-.889-2.402 0-.456.02-.856.059-1.201.045-.352.075-.602.088-.752.019-.15.039-.29.058-.42a4.1 4.1 0 00.03-.576c0-.254-.036-.436-.108-.547a.31.31 0 00-.283-.166.617.617 0 00-.312.078l.127 1.592a11.826 11.826 0 00-.176 2.09c0 .735.166 1.406.498 2.011-.638.658-1.533.987-2.686.987-.657 0-1.227-.173-1.709-.518-.56-.39-.84-.908-.84-1.553V8.38c-.384-.54-.576-1.205-.576-1.992 0-.795.192-1.481.576-2.06h1.739c.462 0 .856.172 1.181.517-.286.267-.429.488-.429.664 0 .202.114.303.341.303.287-.495.723-.905 1.309-1.23.592-.326 1.263-.49 2.012-.49 1.126 0 2.041.277 2.744.83.885.697 1.328 1.778 1.328 3.243l-.029 2.002zm6.074-3.955v3.867c0 .97.234 1.602.703 1.895.007.032.01.094.01.185v.176c0 .957-.261 1.676-.781 2.158-.482.456-1.127.684-1.934.684-.801 0-1.462-.228-1.982-.684-.658-.58-.987-1.426-.987-2.539V5.605c.117-.084.244-.153.381-.205.137-.052.28-.117.43-.195-.28-.143-.534-.39-.762-.742a2.277 2.277 0 01-.342-1.25c0-.82.27-1.491.811-2.012.54-.52 1.201-.781 1.982-.781.788 0 1.446.267 1.973.8.534.528.801 1.192.801 1.993 0 .644-.202 1.21-.606 1.7-.403.48-.895.784-1.474.907 0 .248.094.371.283.371.332 0 .67-.13 1.015-.39.261.202.42.338.479.41zm6.016 5.117l-.469.205c0 .436.084.902.254 1.397.143.468.342.885.595 1.25-.644.664-1.539.996-2.685.996-.658 0-1.227-.173-1.709-.518-.56-.39-.84-.908-.84-1.553V1.71a4.6 4.6 0 011.123-.45 5.211 5.211 0 011.338-.175c.749 0 1.367.146 1.855.44.554.344.831.84.831 1.484v1.035c0 .866-.153 1.712-.459 2.539a3.96 3.96 0 01-.313.371c-.15.156-.27.3-.361.43a.652.652 0 00-.127.342c0 .09.078.175.234.254a5.67 5.67 0 001.192-1.553c.293-.56.559-1.302.8-2.227.085-.013.183-.03.293-.049.111-.02.293-.048.547-.088a3.75 3.75 0 01.547-.068c1.003 0 1.784.231 2.344.693.56.456.84 1.084.84 1.885 0 .801-.254 1.488-.762 2.06-.469.515-1.078.903-1.826 1.163.599.351 1.354.602 2.265.752a4.16 4.16 0 01.528 2.04c0 .717-.228 1.316-.684 1.798-.508.527-1.211.79-2.109.79-.892 0-1.628-.341-2.207-1.025-.573-.69-.918-1.63-1.035-2.822z" fill="#FE9E0E"/></g><defs><filter id="filter0_d" x=".02" y=".42" width="133.117" height="22.883" filterUnits="userSpaceOnUse" color-interpolation-filters="sRGB"><feFlood flood-opacity="0" result="BackgroundImageFix"/><feColorMatrix in="SourceAlpha" values="0 0 0 0 0 0 0 0 0 0 0 0 0 0 0 0 0 0 127 0"/><feOffset dy="4"/><feGaussianBlur stdDeviation="2"/><feColorMatrix values="0 0 0 0 0 0 0 0 0 0 0 0 0 0 0 0 0 0 0.25 0"/><feBlend in2="BackgroundImageFix" result="effect1_dropShadow"/><feBlend in="SourceGraphic" in2="effect1_dropShadow" result="shape"/></filter></defs></svg>