<svg width="43" height="36" viewBox="0 0 43 36" fill="none" xmlns="http://www.w3.org/2000/svg">
<path d="M37.1746 3C38.8616 3 39.3056 4.276 38.8066 7.272C38.2356 10.698 36.5906 22.041 35.2786 29.102C34.7766 31.804 33.8716 32.969 32.5546 32.969C31.8306 32.969 30.9826 32.617 30.0086 31.974C28.6886 31.102 22.0246 26.695 20.5776 25.66C19.2576 24.717 17.4366 23.582 19.7206 21.348C20.5336 20.552 25.8606 15.465 30.0106 11.506C30.4536 11.083 30.0826 10.438 29.5906 10.438C29.4786 10.438 29.3596 10.472 29.2436 10.549C23.6496 14.259 15.8926 19.408 14.9056 20.079C13.9186 20.749 12.9566 21.179 11.6746 21.179C11.0196 21.179 10.2806 21.067 9.4116 20.817C7.4686 20.259 5.5716 19.594 4.8326 19.34C1.9876 18.364 2.6626 17.099 5.4256 15.883C16.5036 11.01 30.8386 5.068 32.8176 4.246C34.7456 3.445 36.1776 3 37.1746 3ZM37.1746 0C35.8066 0 34.1596 0.441 31.6686 1.474L31.3696 1.598C20.7346 6.014 11.0916 10.112 4.2176 13.136C3.1436 13.609 -0.123398 15.046 0.00360162 18.052C0.0576016 19.349 0.771602 21.117 3.8596 22.176L4.0876 22.254C4.9496 22.551 6.7446 23.17 8.5846 23.699C9.7046 24.021 10.7166 24.177 11.6756 24.177C13.3396 24.177 14.6286 23.702 15.6366 23.149C15.6316 23.317 15.6356 23.486 15.6486 23.656C15.8306 25.968 17.6186 27.236 18.6866 27.994L18.8356 28.1C20.4126 29.228 27.5496 33.943 28.3576 34.476C29.8786 35.48 31.2516 35.967 32.5566 35.967C34.6086 35.967 37.2596 34.871 38.2296 29.649C39.1506 24.696 40.2146 17.777 40.9916 12.725C41.3226 10.569 41.5946 8.801 41.7676 7.764C42.1166 5.67 42.2766 3.298 40.8196 1.579C40.2076 0.859 39.0796 0 37.1746 0Z" fill="white"/>
</svg>
