<svg width="44" height="28" viewBox="0 0 44 28" fill="none" xmlns="http://www.w3.org/2000/svg">
<path d="M43.7634 24.211C41.9664 20.977 37.3374 17.091 35.4264 15.4C34.9034 14.937 34.8474 14.136 35.3234 13.624C38.9704 9.705 41.8874 5.202 42.8914 2.481C43.3344 1.279 42.4174 0.00899982 41.1254 0.00899982H37.3724C36.1354 0.00899982 35.4114 0.453 35.0664 1.16C32.0354 7.371 29.4354 10.059 27.6154 11.63C26.5964 12.51 25.0074 11.781 25.0074 10.442C25.0074 7.862 25.0074 4.527 25.0074 2.162C25.0074 1.015 24.0694 0.0869999 22.9124 0.0869999L16.0564 0.00899982C15.1934 0.00899982 14.7004 0.986 15.2184 1.671L16.3504 3.296C16.7764 3.859 17.0064 4.544 17.0064 5.247L17.0004 12.565C17.0004 13.838 15.4574 14.46 14.5414 13.568C11.4424 10.55 8.75338 4.387 7.78538 1.44C7.50538 0.587 6.70638 0.0109998 5.80038 0.00899982L2.10338 0C0.716376 0 -0.297624 1.315 0.0793762 2.639C3.45738 14.496 10.3884 25.776 22.7404 26.999C23.9574 27.119 25.0074 26.139 25.0074 24.926V21.08C25.0074 19.977 25.8724 19.029 26.9844 19.001C27.0234 19 27.0624 19 27.1014 19C30.3684 19 34.0274 23.755 35.3074 25.979C35.6754 26.619 36.3634 27.009 37.1074 27.009H42.0804C43.5314 27.009 44.4624 25.47 43.7634 24.211Z" fill="white"/>
</svg>
