<svg width="44" height="40" viewBox="0 0 44 40" fill="none" xmlns="http://www.w3.org/2000/svg">
<g filter="url(#filter0_d)">
<path d="M32.479 15.64C32.4065 14.8582 32.4619 12.733 34.5032 9.77779C34.6576 9.55479 34.6296 9.25402 34.4378 9.06283C33.6056 8.2328 33.0903 7.70903 32.7289 7.34252C32.2537 6.85925 32.0368 6.63905 31.7192 6.35192C31.5072 6.16185 31.1864 6.15854 30.9722 6.34485C27.4143 9.43265 23.4625 15.8131 24.0343 23.6302C24.3694 28.2202 27.7263 31.5518 32.0159 31.5518C36.4181 31.5518 39.9996 27.9803 39.9996 23.5896C39.9996 19.354 36.6664 15.8805 32.479 15.64ZM32.0159 30.4298C28.3322 30.4298 25.4477 27.5359 25.1561 23.5491C25.1561 23.5491 25.1561 23.5491 25.1561 23.5485C24.5128 14.7569 29.7527 9.04639 31.3358 7.53427C31.4902 7.68603 31.6665 7.8646 31.9264 8.12867C32.2394 8.44644 32.668 8.88145 33.3161 9.53016C30.8381 13.3379 31.3056 16.0509 31.5105 16.4399C31.6078 16.6245 31.8072 16.7489 32.0159 16.7489C35.7979 16.7489 38.8746 19.8175 38.8746 23.5896C38.8746 27.3612 35.7979 30.4298 32.0159 30.4298Z" fill="white"/>
<path d="M12.5014 15.6401C12.4284 14.8605 12.4822 12.7369 14.5256 9.7779C14.6795 9.55489 14.652 9.25413 14.4603 9.06293C13.6297 8.23453 13.115 7.71132 12.7541 7.34481C12.2773 6.86048 12.0598 6.63966 11.7423 6.35203C11.5302 6.16195 11.2094 6.1592 10.9952 6.3444C7.4373 9.4322 3.48495 15.8116 4.05566 23.6303V23.6308C4.39187 28.2203 7.74926 31.5519 12.0389 31.5519C16.4411 31.5519 20.0227 27.9804 20.0227 23.5897C20.0227 19.3536 16.6894 15.8796 12.5014 15.6401ZM12.0389 30.4299C8.35575 30.4299 5.46962 27.536 5.1774 23.5487V23.5492C4.53581 14.7553 9.77573 9.04593 11.3588 7.53438C11.5137 7.68613 11.6906 7.86583 11.951 8.13046C12.2635 8.44822 12.6915 8.88268 13.3386 9.53026C10.8606 13.3385 11.3281 16.051 11.533 16.4395C11.6302 16.6241 11.8301 16.749 12.0389 16.749C15.821 16.749 18.8977 19.8176 18.8977 23.5897C18.8977 27.3613 15.821 30.4299 12.0389 30.4299Z" fill="white"/>
</g>
<defs>
<filter id="filter0_d" x="0" y="0.92688" width="44" height="43.9053" filterUnits="userSpaceOnUse" color-interpolation-filters="sRGB">
<feFlood flood-opacity="0" result="BackgroundImageFix"/>
<feColorMatrix in="SourceAlpha" type="matrix" values="0 0 0 0 0 0 0 0 0 0 0 0 0 0 0 0 0 0 127 0"/>
<feOffset dy="4"/>
<feGaussianBlur stdDeviation="2"/>
<feColorMatrix type="matrix" values="0 0 0 0 0 0 0 0 0 0 0 0 0 0 0 0 0 0 0.25 0"/>
<feBlend mode="normal" in2="BackgroundImageFix" result="effect1_dropShadow"/>
<feBlend mode="normal" in="SourceGraphic" in2="effect1_dropShadow" result="shape"/>
</filter>
</defs>
</svg>
