<svg width="116" height="102" viewBox="0 0 116 102" fill="none" xmlns="http://www.w3.org/2000/svg">
<g clip-path="url(#clip0)">
<path d="M58.1534 84.9584C56.9099 84.9584 55.9008 85.8364 55.9008 86.9182C55.9008 88 56.9099 88.8779 58.1534 88.8779C59.3968 88.8779 60.406 88 60.406 86.9182C60.406 85.8364 59.3968 84.9584 58.1534 84.9584Z" fill="black"/>
<path d="M98.7002 97.305H91.9424V90.8377C91.9424 87.5959 88.9109 84.9584 85.1846 84.9584H82.932V82.9986C82.932 80.3912 80.97 78.1758 78.2637 77.4084C78.0758 75.5864 74.2739 38.7045 74.0926 36.9462C76.5918 36.1114 78.4268 33.996 78.4268 31.4567C78.4268 28.902 76.5434 26.7235 73.9216 25.9145V16.5625H76.1742C77.4183 16.5625 78.4268 15.6849 78.4268 14.6027C78.4268 13.5205 77.4183 12.643 76.1742 12.643H73.761C72.6833 6.05187 66.1711 0.884354 58.1534 0.884354C50.1339 0.884354 43.6232 6.05265 42.5457 12.643H40.1325C38.8884 12.643 37.8799 13.5205 37.8799 14.6027C37.8799 15.6849 38.8884 16.5625 40.1325 16.5625H42.3851V25.9112C39.805 26.7031 37.8799 28.8567 37.8799 31.4567C37.8799 33.9556 39.6822 36.0941 42.2146 36.9437C42.1263 37.7993 38.1315 76.5506 38.0432 77.4084C35.3367 78.1758 33.3747 80.3912 33.3747 82.9986V84.9584H31.1221C27.3959 84.9584 24.3643 87.5959 24.3643 90.8377V97.305H17.6065C16.3624 97.305 15.3539 98.1825 15.3539 99.2647C15.3539 100.347 16.3624 101.224 17.6065 101.224H98.7002C99.9444 101.224 100.953 100.347 100.953 99.2647C100.953 98.1825 99.9444 97.305 98.7002 97.305ZM58.1534 4.80389C63.661 4.80389 68.1637 8.21604 69.1916 12.643H47.1154C48.1428 8.21624 52.6464 4.80389 58.1534 4.80389ZM69.4164 16.5625V25.5774H60.406V16.5625H69.4164ZM46.8903 16.5625H55.9008V25.5774H46.8903V16.5625ZM44.6377 29.497H71.669C72.9111 29.497 73.9216 30.3761 73.9216 31.4567C73.9216 32.5387 72.9127 33.4165 71.669 33.4165H44.6377C43.3957 33.4165 42.3851 32.5374 42.3851 31.4567C42.3851 30.3748 43.3941 29.497 44.6377 29.497ZM69.7207 38.4151L70.8353 49.2271L44.2809 60.7784L45.5 48.952L69.7207 38.4151ZM45.9731 44.3638L46.6975 37.336H62.1274L45.9731 44.3638ZM71.2676 53.421L72.3844 64.2554L44.0847 77.1193H42.5962L43.8079 65.366L71.2676 53.421ZM72.8201 68.4799L73.7105 77.1193H53.8137L72.8201 68.4799ZM87.4372 97.305H28.8695V90.8377C28.8695 89.7571 29.88 88.8779 31.1221 88.8779H49.0483C50.2924 88.8779 51.3009 88.0004 51.3009 86.9182C51.3009 85.836 50.2924 84.9584 49.0483 84.9584H37.8799V82.9986C37.8799 81.918 38.8904 81.0389 40.1325 81.0389H44.633C44.6353 81.0389 44.6373 81.0393 44.6395 81.0393C44.642 81.0393 44.6445 81.0389 44.647 81.0389H76.167C76.1686 81.0389 76.1701 81.0391 76.1717 81.0391C76.1728 81.0391 76.1742 81.0389 76.1753 81.0389C77.417 81.0395 78.4268 81.9184 78.4268 82.9986V84.9584H67.2584C66.0143 84.9584 65.0058 85.836 65.0058 86.9182C65.0058 88.0004 66.0143 88.8779 67.2584 88.8779H85.1846C86.4267 88.8779 87.4372 89.7571 87.4372 90.8377V97.305Z" fill="black"/>
<path d="M99.9946 39.8212L84.6138 34.279C83.4643 33.8653 82.1465 34.34 81.6708 35.3398C81.1948 36.3397 81.7406 37.4862 82.8899 37.9003L98.2706 43.4425C99.4249 43.8578 100.739 43.3784 101.214 42.3817C101.69 41.3816 101.144 40.2353 99.9946 39.8212Z" fill="black"/>
<path d="M101.214 12.6927C100.738 11.6925 99.4202 11.2182 98.2709 11.6319L82.8902 17.1741C81.7407 17.5882 81.1951 18.7347 81.6711 19.7346C82.1464 20.7327 83.4619 21.2103 84.6141 20.7954L99.9949 15.2532C101.144 14.8391 101.69 13.6926 101.214 12.6927Z" fill="black"/>
<path d="M94.195 25.5774H85.1846C83.9405 25.5774 82.932 26.455 82.932 27.5372C82.932 28.6194 83.9405 29.497 85.1846 29.497H94.195C95.4391 29.497 96.4476 28.6194 96.4476 27.5372C96.4476 26.455 95.4391 25.5774 94.195 25.5774Z" fill="black"/>
<path d="M33.4168 17.1743L18.036 11.6321C16.8863 11.2184 15.569 11.6929 15.093 12.6929C14.617 13.693 15.1628 14.8393 16.3121 15.2534L31.6929 20.7956C32.8469 21.2109 34.1615 20.7315 34.6359 19.7348C35.1119 18.7347 34.5661 17.5884 33.4168 17.1743Z" fill="black"/>
<path d="M34.6357 35.3398C34.1597 34.3399 32.8417 33.8655 31.6927 34.279L16.3119 39.8212C15.1626 40.2353 14.6168 41.3818 15.0928 42.3817C15.5681 43.3802 16.884 43.8572 18.0358 43.4425L33.4166 37.9003C34.5661 37.4862 35.1117 36.3397 34.6357 35.3398Z" fill="black"/>
<path d="M31.1222 25.5774H22.1117C20.8676 25.5774 19.8591 26.455 19.8591 27.5372C19.8591 28.6194 20.8676 29.497 22.1117 29.497H31.1222C32.3663 29.497 33.3748 28.6194 33.3748 27.5372C33.3748 26.455 32.3663 25.5774 31.1222 25.5774Z" fill="black"/>
</g>
<defs>
<clipPath id="clip0">
<rect width="115.333" height="100.34" fill="white" transform="translate(0.486694 0.884354)"/>
</clipPath>
</defs>
</svg>
