<svg width="33" height="26" viewBox="0 0 33 26" fill="none" xmlns="http://www.w3.org/2000/svg">
<path d="M7.3179 0C3.28257 0 0 3.57157 0 7.96223C0 12.1978 3.05498 15.6718 6.89344 15.9118C6.95991 16.6926 6.91005 18.8178 5.03838 21.7741C4.89689 21.9971 4.92257 22.2978 5.0983 22.489C5.8642 23.3224 6.33755 23.8472 6.66884 24.2143C7.10242 24.6942 7.30032 24.9134 7.58984 25.1994C7.68802 25.2963 7.81187 25.3451 7.9363 25.3451C8.0571 25.3451 8.17745 25.2991 8.27465 25.2076C11.5361 22.1198 15.1591 15.7398 14.6349 7.92167C14.3277 3.33162 11.2506 0 7.3179 0ZM7.9413 24.0176C7.80084 23.8669 7.64069 23.6894 7.40453 23.4281C7.11753 23.1098 6.72375 22.6736 6.12655 22.0217C8.39804 18.2134 7.96898 15.5009 7.78119 15.1119C7.69204 14.9273 7.50925 14.8029 7.3179 14.8029C3.85156 14.8029 1.03125 11.7343 1.03125 7.96223C1.03125 4.19066 3.85156 1.12204 7.3179 1.12204C10.6947 1.12204 13.3393 4.0159 13.6066 8.00274C14.1958 16.7961 9.39252 22.5055 7.9413 24.0176Z" fill="white"/>
<path d="M32.9482 7.92167V7.92111C32.64 3.33162 29.5624 0 25.6307 0C21.5953 0 18.3123 3.57157 18.3123 7.96223C18.3123 12.1978 21.3677 15.6718 25.2067 15.9118C25.2732 16.692 25.2228 18.8161 23.3507 21.7741C23.2092 21.9971 23.2349 22.2978 23.4106 22.489C24.1735 23.319 24.6458 23.8428 24.9771 24.2093C25.4127 24.6925 25.6116 24.9128 25.9026 25.1999C26.0008 25.2963 26.1252 25.3451 26.2491 25.3451C26.3699 25.3451 26.4903 25.2991 26.5874 25.207C29.8488 22.1192 33.4718 15.7393 32.9482 7.92167ZM26.2541 24.0176C26.1126 23.8658 25.951 23.6872 25.7128 23.4232C25.4258 23.1054 25.0335 22.6704 24.4388 22.0217C26.7103 18.2129 26.2818 15.5009 26.0945 15.1119C26.0053 14.9279 25.8221 14.8029 25.6307 14.8029C22.1638 14.8029 19.3435 11.7343 19.3435 7.96223C19.3435 4.19066 22.1638 1.12204 25.6307 1.12204C29.0069 1.12204 31.652 4.0159 31.9199 8.0033V8.00274C32.5085 16.795 27.7053 22.5055 26.2541 24.0176Z" fill="white"/>
</svg>
