<svg width="134" height="24" viewBox="0 0 134 24" fill="none" xmlns="http://www.w3.org/2000/svg">
<g filter="url(#filter0_d)">
<path d="M9.56641 11.4453C9.78125 11.4062 9.88867 11.2988 9.88867 11.123C9.88867 10.9408 9.83008 10.7389 9.71289 10.5176C9.60221 10.2897 9.4362 10.0749 9.21484 9.87305C8.63542 9.35221 7.85091 9.0918 6.86133 9.0918C6.37305 9.0918 5.91732 9.17318 5.49414 9.33594C5.04492 9.10807 4.68685 8.74674 4.41992 8.25195C4.15299 7.75716 4.01953 7.22331 4.01953 6.65039C4.01953 5.15299 4.64453 3.9974 5.89453 3.18359C6.96875 2.48698 8.29362 2.13867 9.86914 2.13867C11.041 2.13867 12.0273 2.26562 12.8281 2.51953C13.6289 2.76693 14.2832 3.08594 14.791 3.47656C14.9408 3.90625 15.0156 4.35221 15.0156 4.81445C15.0156 5.27669 14.9538 5.69661 14.8301 6.07422C14.7064 6.45182 14.5273 6.75456 14.293 6.98242C14.0716 6.81966 13.6712 6.65365 13.0918 6.48438C12.5124 6.3151 11.985 6.23047 11.5098 6.23047C11.0345 6.23047 10.7155 6.25977 10.5527 6.31836C10.3965 6.37695 10.3184 6.4681 10.3184 6.5918C10.3184 6.65039 10.3281 6.70573 10.3477 6.75781C10.5755 6.69922 10.8685 6.66992 11.2266 6.66992C12.4961 6.66992 13.5312 6.9694 14.332 7.56836C15.276 8.28451 15.748 9.35872 15.748 10.791C15.748 12.054 15.237 13.1022 14.2148 13.9355C13.1081 14.8275 11.6204 15.2734 9.75195 15.2734C8.72331 15.2734 7.83138 15.1953 7.07617 15.0391C6.32096 14.8893 5.58529 14.6224 4.86914 14.2383C4.38086 13.5286 4.13672 12.8092 4.13672 12.0801C4.13672 11.3444 4.38737 10.7357 4.88867 10.2539C5.38997 9.77214 6.00521 9.53125 6.73438 9.53125C7.47005 9.53125 8.06901 9.68099 8.53125 9.98047C9 10.2799 9.34505 10.7682 9.56641 11.4453ZM20.6406 10.2246V10.459C20.6406 10.5697 20.6439 10.6478 20.6504 10.6934C20.7285 10.7259 20.8034 10.7422 20.875 10.7422C21.0638 10.7422 21.1582 10.6152 21.1582 10.3613C21.1582 9.69727 21.2363 8.44727 21.3926 6.61133C21.4772 5.61523 21.5293 5.0293 21.5488 4.85352C22.1608 4.44336 22.8932 4.23828 23.7461 4.23828C24.6055 4.23828 25.2695 4.46615 25.7383 4.92188C26.1549 5.33854 26.3633 5.87891 26.3633 6.54297C26.3633 6.99219 26.3014 7.45768 26.1777 7.93945C25.5723 10.2767 24.9701 12.1159 24.3711 13.457C24.0521 14.1536 23.5671 14.6289 22.916 14.8828C22.4342 15.0781 21.7474 15.1758 20.8555 15.1758C20.3802 15.1758 19.9082 15.1367 19.4395 15.0586C18.9772 14.9805 18.6224 14.8893 18.375 14.7852C17.431 12.8581 16.653 10.7259 16.041 8.38867C15.8392 8.18685 15.6667 7.90365 15.5234 7.53906C15.3802 7.17448 15.3086 6.79688 15.3086 6.40625C15.3086 5.59896 15.5039 4.9056 15.8945 4.32617C15.8945 4.32617 16.7051 4.32617 18.3262 4.32617C19.179 4.32617 19.8138 4.56706 20.2305 5.04883C20.543 5.41341 20.7448 5.94401 20.8359 6.64062C20.7057 7.85156 20.6406 9.04622 20.6406 10.2246ZM32.3105 15.3027C30.5072 15.3027 29.0846 14.8014 28.043 13.7988C26.9753 12.7897 26.4414 11.4095 26.4414 9.6582C26.4414 7.90039 26.9915 6.50716 28.0918 5.47852C29.1074 4.52148 30.3932 4.04297 31.9492 4.04297C33.5052 4.04297 34.752 4.47266 35.6895 5.33203C36.6335 6.1849 37.1055 7.23633 37.1055 8.48633C37.1055 9.59961 36.7181 10.4395 35.9434 11.0059C35.2272 11.5397 34.2507 11.8066 33.0137 11.8066C32.0892 11.8066 31.3079 11.6146 30.6699 11.2305C30.6178 11.2695 30.5918 11.3411 30.5918 11.4453C30.5918 11.6406 30.849 11.8197 31.3633 11.9824C31.8776 12.1582 32.4603 12.2461 33.1113 12.2461C33.7689 12.2461 34.3646 12.1647 34.8984 12.002C35.4388 11.8327 35.8717 11.6341 36.1973 11.4062C36.3535 11.543 36.4772 11.7969 36.5684 12.168C36.666 12.5326 36.7148 12.8678 36.7148 13.1738C36.7148 13.4733 36.6855 13.7402 36.627 13.9746C36.1191 14.4043 35.5983 14.7103 35.0645 14.8926C34.3092 15.166 33.3913 15.3027 32.3105 15.3027ZM32.1836 8.69141C32.5091 8.69141 32.6719 8.56771 32.6719 8.32031C32.6719 8.08594 32.4993 7.96875 32.1543 7.96875C31.8092 7.96875 31.6107 8.1543 31.5586 8.52539C31.7409 8.63607 31.9492 8.69141 32.1836 8.69141ZM40.4746 15.127C39.6999 15.127 39.0814 14.987 38.6191 14.707C38.1048 14.4141 37.8477 13.9811 37.8477 13.4082V8.37891C37.4635 7.83854 37.2715 7.17448 37.2715 6.38672C37.2715 5.59245 37.4635 4.9056 37.8477 4.32617H39.3418C40.11 4.32617 40.6602 4.57357 40.9922 5.06836C40.8294 5.25065 40.6862 5.48177 40.5625 5.76172C40.4388 6.04167 40.377 6.24349 40.377 6.36719C40.377 6.48438 40.4062 6.57227 40.4648 6.63086C40.5299 6.68945 40.6211 6.71875 40.7383 6.71875C40.9661 5.8138 41.3991 5.14974 42.0371 4.72656C42.5645 4.36849 43.2155 4.18945 43.9902 4.18945C44.9538 4.18945 45.709 4.39453 46.2559 4.80469C46.4512 5.32552 46.5488 5.96354 46.5488 6.71875C46.5488 7.46745 46.3991 8.14779 46.0996 8.75977C45.8783 8.87695 45.5723 8.97786 45.1816 9.0625C44.791 9.14062 44.3971 9.17969 44 9.17969C43.6029 9.17969 43.2448 9.15365 42.9258 9.10156C42.6133 9.04297 42.3854 8.99089 42.2422 8.94531C42.1901 8.9974 42.1641 9.07227 42.1641 9.16992C42.1641 9.26758 42.2259 9.34245 42.3496 9.39453C42.4798 9.4401 42.6947 9.49219 42.9941 9.55078V14.4531C42.2845 14.9023 41.4447 15.127 40.4746 15.127ZM49.8789 4.00391C50.2695 4.00391 50.7188 4.08854 51.2266 4.25781C51.2526 4.30339 51.2884 4.375 51.334 4.47266C51.3861 4.5638 51.4479 4.67773 51.5195 4.81445C51.5911 4.95117 51.6497 5.0651 51.6953 5.15625C51.7409 5.24089 51.8092 5.37435 51.9004 5.55664C51.998 5.73242 52.0599 5.85286 52.0859 5.91797C52.1185 5.97656 52.1543 6.04492 52.1934 6.12305C52.2324 6.19466 52.2617 6.25 52.2812 6.28906L52.9062 4.24805C53.1276 4.16992 53.4076 4.11133 53.7461 4.07227C54.0846 4.02669 54.3776 4.00391 54.625 4.00391C55.556 4.00391 56.2721 4.26107 56.7734 4.77539C57.2747 5.28971 57.5254 5.94076 57.5254 6.72852C57.5254 7.51628 57.2357 8.20964 56.6562 8.80859C56.168 9.31641 55.5299 9.69727 54.7422 9.95117C54.7422 10.1725 54.8529 10.2832 55.0742 10.2832C55.263 10.2832 55.5885 10.1595 56.0508 9.91211C56.2201 10.1595 56.4512 10.4785 56.7441 10.8691C57.0371 11.2598 57.3561 11.6895 57.7012 12.1582C57.6751 13.0762 57.4082 13.8086 56.9004 14.3555C56.3926 14.9023 55.7513 15.1758 54.9766 15.1758C54.2083 15.1758 53.5833 14.9707 53.1016 14.5605C52.6198 14.1504 52.2747 13.6003 52.0664 12.9102L51.2852 14.7949C50.8359 15.0553 50.2695 15.1855 49.5859 15.1855C48.7721 15.1855 48.082 14.9251 47.5156 14.4043C46.9557 13.877 46.6758 13.1771 46.6758 12.3047C46.6758 11.2305 47.2422 10.332 48.375 9.60938C48.5378 9.50521 48.8763 9.33594 49.3906 9.10156C49.3385 8.93229 49.2279 8.84766 49.0586 8.84766C48.8047 8.84766 48.5052 8.97786 48.1602 9.23828C47.8086 9.02344 47.4863 8.68815 47.1934 8.23242C46.9069 7.77669 46.7637 7.28516 46.7637 6.75781C46.7637 5.87891 47.0599 5.1888 47.6523 4.6875C48.2057 4.23177 48.9479 4.00391 49.8789 4.00391ZM63.3457 7.34375C63.1764 7.39583 63.0918 7.49674 63.0918 7.64648V7.69531C63.0918 7.72786 63.0951 7.7474 63.1016 7.75391C63.1732 7.7474 63.2676 7.74414 63.3848 7.74414H63.6191C64.3613 7.74414 65.0547 7.85807 65.6992 8.08594C66.3503 8.30729 66.8809 8.66536 67.291 9.16016C67.7467 9.72005 67.9746 10.4264 67.9746 11.2793C67.9746 12.6074 67.5156 13.61 66.5977 14.2871C65.6797 14.9642 64.4525 15.3027 62.916 15.3027C61.3796 15.3027 60.1751 15.0488 59.3027 14.541C58.4368 14.0332 58.0039 13.2878 58.0039 12.3047C58.0039 11.9401 58.082 11.6081 58.2383 11.3086C58.3945 11.0026 58.5703 10.7878 58.7656 10.6641C59.1237 10.9635 59.6413 11.224 60.3184 11.4453C61.002 11.6602 61.7246 11.7676 62.4863 11.7676C62.7923 11.7676 62.9453 11.6829 62.9453 11.5137C62.9453 11.4355 62.9355 11.3704 62.916 11.3184C62.8704 11.3249 62.8151 11.3281 62.75 11.3281H62.6426C61.2624 11.3281 60.1589 11.0547 59.332 10.5078C58.3945 9.88932 57.9258 9.01693 57.9258 7.89062C57.9258 6.76432 58.3457 5.85286 59.1855 5.15625C60.1165 4.38802 61.3958 4.00391 63.0234 4.00391C63.8242 4.00391 64.5697 4.08854 65.2598 4.25781C65.9564 4.42708 66.5521 4.65169 67.0469 4.93164C67.1706 5.19857 67.2324 5.59245 67.2324 6.11328C67.2324 6.90755 67.0143 7.51628 66.5781 7.93945C66.2461 7.75716 65.8392 7.60742 65.3574 7.49023C64.8822 7.36654 64.4525 7.30469 64.0684 7.30469C63.6842 7.30469 63.4434 7.31771 63.3457 7.34375ZM71.1777 15.127C70.403 15.127 69.7845 14.987 69.3223 14.707C68.8079 14.4141 68.5508 13.9811 68.5508 13.4082V8.37891C68.1667 7.83854 67.9746 7.17448 67.9746 6.38672C67.9746 5.59245 68.1667 4.9056 68.5508 4.32617H70.0449C70.8132 4.32617 71.3633 4.57357 71.6953 5.06836C71.5326 5.25065 71.3893 5.48177 71.2656 5.76172C71.1419 6.04167 71.0801 6.24349 71.0801 6.36719C71.0801 6.48438 71.1094 6.57227 71.168 6.63086C71.2331 6.68945 71.3242 6.71875 71.4414 6.71875C71.6693 5.8138 72.1022 5.14974 72.7402 4.72656C73.2676 4.36849 73.9186 4.18945 74.6934 4.18945C75.6569 4.18945 76.4121 4.39453 76.959 4.80469C77.1543 5.32552 77.252 5.96354 77.252 6.71875C77.252 7.46745 77.1022 8.14779 76.8027 8.75977C76.5814 8.87695 76.2754 8.97786 75.8848 9.0625C75.4941 9.14062 75.1003 9.17969 74.7031 9.17969C74.306 9.17969 73.9479 9.15365 73.6289 9.10156C73.3164 9.04297 73.0885 8.99089 72.9453 8.94531C72.8932 8.9974 72.8672 9.07227 72.8672 9.16992C72.8672 9.26758 72.929 9.34245 73.0527 9.39453C73.1829 9.4401 73.3978 9.49219 73.6973 9.55078V14.4531C72.9876 14.9023 72.1478 15.127 71.1777 15.127ZM82.6719 9.56055V11.2695C82.7174 11.3151 82.7923 11.3379 82.8965 11.3379C83.0007 11.3379 83.0755 11.3021 83.1211 11.2305C83.1667 11.1589 83.1895 11.0352 83.1895 10.8594V9.46289C83.1895 8.83789 83.1634 8.42448 83.1113 8.22266C83.0592 8.01432 82.9616 7.91016 82.8184 7.91016C82.7272 7.91016 82.6491 7.94271 82.584 8.00781C82.6426 8.65234 82.6719 9.16992 82.6719 9.56055ZM79.0195 13.8867C77.9518 12.8581 77.418 11.4648 77.418 9.70703C77.418 7.94271 77.9193 6.55273 78.9219 5.53711C79.931 4.51497 81.2526 4.00391 82.8867 4.00391C84.5208 4.00391 85.8424 4.53451 86.8516 5.5957C87.8542 6.6569 88.3555 8.04036 88.3555 9.74609C88.3555 11.4453 87.8704 12.7962 86.9004 13.7988C85.9368 14.8014 84.625 15.3027 82.9648 15.3027C81.3047 15.3027 79.9896 14.8307 79.0195 13.8867ZM93.5898 9.0332H94.6348V7.72461H94.4199C94.179 8.18685 93.9023 8.5612 93.5898 8.84766V9.0332ZM93.6875 13.3887H94.4785C94.6868 13.3887 94.8366 13.3724 94.9277 13.3398C95.0189 13.3008 95.0645 13.2389 95.0645 13.1543C95.0645 13.0632 95.0514 12.9883 95.0254 12.9297H92.0664C90.9727 12.9297 90.1361 12.5879 89.5566 11.9043C89.0293 11.2923 88.7656 10.4655 88.7656 9.42383C88.7656 8.88346 88.8112 8.41146 88.9023 8.00781C89.8659 7.18099 90.7611 6.24023 91.5879 5.18555C92.0436 4.59961 92.7174 3.61328 93.6094 2.22656H96.0996C96.9134 2.22656 97.5775 2.44792 98.0918 2.89062C98.6061 3.32682 98.8633 3.92578 98.8633 4.6875V8.41797H98.6582C98.3783 8.41797 98.2383 8.52865 98.2383 8.75V8.87695H99.8105C100.038 9.44987 100.152 10.1042 100.152 10.8398C100.152 11.3477 100.045 11.7936 99.8301 12.1777C99.6152 12.5553 99.2897 12.793 98.8535 12.8906V14.3848C98.1243 14.9121 97.2422 15.1758 96.207 15.1758C95.1784 15.1758 94.3385 14.9316 93.6875 14.4434V13.3887ZM111.012 10.166C111.012 10.6348 111.064 11.0124 111.168 11.2988C111.272 11.5853 111.454 11.8099 111.715 11.9727C111.721 12.0052 111.725 12.0671 111.725 12.1582V12.334C111.725 13.2324 111.464 13.9323 110.943 14.4336C110.429 14.9284 109.762 15.1758 108.941 15.1758C108.128 15.1758 107.467 14.9447 106.959 14.4824C106.367 13.9551 106.07 13.1543 106.07 12.0801C106.07 11.6243 106.09 11.224 106.129 10.8789C106.174 10.5273 106.204 10.2767 106.217 10.127C106.236 9.97721 106.256 9.83724 106.275 9.70703C106.295 9.57682 106.305 9.38477 106.305 9.13086C106.305 8.87695 106.269 8.69466 106.197 8.58398C106.132 8.47331 106.038 8.41797 105.914 8.41797C105.797 8.41797 105.693 8.44401 105.602 8.49609L105.729 10.0879C105.611 10.7454 105.553 11.4421 105.553 12.1777C105.553 12.9134 105.719 13.584 106.051 14.1895C105.413 14.847 104.518 15.1758 103.365 15.1758C102.708 15.1758 102.138 15.0033 101.656 14.6582C101.096 14.2676 100.816 13.75 100.816 13.1055V8.37891C100.432 7.83854 100.24 7.17448 100.24 6.38672C100.24 5.59245 100.432 4.9056 100.816 4.32617H102.555C103.017 4.32617 103.411 4.4987 103.736 4.84375C103.45 5.11068 103.307 5.33203 103.307 5.50781C103.307 5.70964 103.421 5.81055 103.648 5.81055C103.935 5.31576 104.371 4.9056 104.957 4.58008C105.549 4.25456 106.22 4.0918 106.969 4.0918C108.095 4.0918 109.01 4.36849 109.713 4.92188C110.598 5.61849 111.041 6.69922 111.041 8.16406L111.012 10.166ZM117.086 6.21094V10.0781C117.086 11.0482 117.32 11.6797 117.789 11.9727C117.796 12.0052 117.799 12.0671 117.799 12.1582V12.334C117.799 13.291 117.538 14.0104 117.018 14.4922C116.536 14.9479 115.891 15.1758 115.084 15.1758C114.283 15.1758 113.622 14.9479 113.102 14.4922C112.444 13.9128 112.115 13.0664 112.115 11.9531V5.60547C112.232 5.52083 112.359 5.45247 112.496 5.40039C112.633 5.34831 112.776 5.2832 112.926 5.20508C112.646 5.06185 112.392 4.81445 112.164 4.46289C111.936 4.10482 111.822 3.68815 111.822 3.21289C111.822 2.39258 112.092 1.72201 112.633 1.20117C113.173 0.680339 113.834 0.419922 114.615 0.419922C115.403 0.419922 116.061 0.686849 116.588 1.2207C117.122 1.74805 117.389 2.41211 117.389 3.21289C117.389 3.85742 117.187 4.42383 116.783 4.91211C116.38 5.39388 115.888 5.69661 115.309 5.82031C115.309 6.06771 115.403 6.19141 115.592 6.19141C115.924 6.19141 116.262 6.0612 116.607 5.80078C116.868 6.0026 117.027 6.13932 117.086 6.21094ZM123.102 11.3281L122.633 11.5332C122.633 11.9694 122.717 12.4349 122.887 12.9297C123.03 13.3984 123.229 13.8151 123.482 14.1797C122.838 14.8438 121.943 15.1758 120.797 15.1758C120.139 15.1758 119.57 15.0033 119.088 14.6582C118.528 14.2676 118.248 13.75 118.248 13.1055V1.70898C118.561 1.52669 118.935 1.37695 119.371 1.25977C119.814 1.14258 120.26 1.08398 120.709 1.08398C121.458 1.08398 122.076 1.23047 122.564 1.52344C123.118 1.86849 123.395 2.36328 123.395 3.00781V4.04297C123.395 4.90885 123.242 5.75521 122.936 6.58203C122.877 6.66667 122.773 6.79036 122.623 6.95312C122.473 7.10938 122.353 7.2526 122.262 7.38281C122.177 7.51302 122.135 7.62695 122.135 7.72461C122.135 7.81576 122.213 7.90039 122.369 7.97852C122.877 7.50326 123.274 6.98568 123.561 6.42578C123.854 5.86589 124.12 5.1237 124.361 4.19922C124.446 4.1862 124.544 4.16992 124.654 4.15039C124.765 4.13086 124.947 4.10156 125.201 4.0625C125.462 4.01693 125.644 3.99414 125.748 3.99414C126.751 3.99414 127.532 4.22526 128.092 4.6875C128.652 5.14323 128.932 5.77148 128.932 6.57227C128.932 7.37305 128.678 8.0599 128.17 8.63281C127.701 9.14714 127.092 9.53451 126.344 9.79492C126.943 10.1465 127.698 10.3971 128.609 10.5469C128.961 11.1849 129.137 11.8652 129.137 12.5879C129.137 13.304 128.909 13.903 128.453 14.3848C127.945 14.9121 127.242 15.1758 126.344 15.1758C125.452 15.1758 124.716 14.834 124.137 14.1504C123.564 13.4603 123.219 12.5195 123.102 11.3281Z" fill="#FE9E0E"/>
</g>
<defs>
<filter id="filter0_d" x="0.0195312" y="0.419922" width="133.117" height="22.8828" filterUnits="userSpaceOnUse" color-interpolation-filters="sRGB">
<feFlood flood-opacity="0" result="BackgroundImageFix"/>
<feColorMatrix in="SourceAlpha" type="matrix" values="0 0 0 0 0 0 0 0 0 0 0 0 0 0 0 0 0 0 127 0"/>
<feOffset dy="4"/>
<feGaussianBlur stdDeviation="2"/>
<feColorMatrix type="matrix" values="0 0 0 0 0 0 0 0 0 0 0 0 0 0 0 0 0 0 0.25 0"/>
<feBlend mode="normal" in2="BackgroundImageFix" result="effect1_dropShadow"/>
<feBlend mode="normal" in="SourceGraphic" in2="effect1_dropShadow" result="shape"/>
</filter>
</defs>
</svg>
