<svg width="116" height="102" viewBox="0 0 116 102" fill="none" xmlns="http://www.w3.org/2000/svg">
<g clip-path="url(#clip0)">
<path d="M115.44 58.4926L98.3633 8.72808C97.7655 6.98598 96.4214 5.55017 94.5786 4.68533C92.7353 3.82003 90.6141 3.62986 88.6057 4.14863L5.71214 25.5546C3.70315 26.0734 2.04723 27.2395 1.04976 28.8379C0.0520252 30.4362 -0.167986 32.2758 0.429755 34.0179L17.5063 83.7825C18.1041 85.5246 19.4483 86.9604 21.291 87.8252C22.4539 88.3709 23.7271 88.6482 25.0135 88.6482C25.7657 88.6482 26.5225 88.5533 27.2639 88.3619L56.3263 80.8571C57.3787 80.5853 57.9777 79.625 57.6647 78.7121C57.3514 77.7994 56.2447 77.2793 55.1921 77.5511L26.1297 85.056C25.1383 85.3117 24.0918 85.2181 23.1831 84.7915C22.2747 84.3652 21.612 83.6572 21.3173 82.7985L4.24072 33.0338C3.94596 32.1749 4.05437 31.268 4.54608 30.4799C5.03806 29.6917 5.85502 29.1163 6.84639 28.8606L89.7399 7.45462C90.7313 7.19891 91.7775 7.2925 92.6865 7.71906C93.5952 8.14538 94.2578 8.85317 94.5523 9.71203L111.629 59.4766C112.238 61.2497 111.069 63.122 109.023 63.6499L104.552 64.8045C103.5 65.0763 102.901 66.0366 103.214 66.9495C103.527 67.8624 104.633 68.3823 105.686 68.1105L110.158 66.9559C114.304 65.8851 116.674 62.0884 115.44 58.4926Z" fill="black"/>
<path d="M98.2268 61.2796C98.5403 62.1925 99.6468 62.7127 100.699 62.4406L106.211 61.0172C106.717 60.8866 107.142 60.5875 107.392 60.185C107.643 59.7826 107.7 59.3105 107.55 58.8723L91.5183 12.1536C91.2047 11.241 90.0991 10.7208 89.0457 10.9926L9.65828 31.4931C8.60594 31.7649 8.00688 32.7251 8.31993 33.638L24.3513 80.3567C24.6084 81.1054 25.3991 81.5899 26.2561 81.5897C26.4438 81.5897 26.6349 81.5664 26.8242 81.5177L49.9927 75.5349C51.045 75.2631 51.6441 74.3028 51.331 73.3899C51.0177 72.4772 49.911 71.9575 48.8584 72.2289L27.5953 77.7196L12.6981 34.307L88.2746 14.7905L103.172 58.2033L99.5654 59.1346C98.5128 59.4064 97.9137 60.3669 98.2268 61.2796Z" fill="black"/>
<path d="M77.9171 41.2818C76.6529 39.8899 74.8401 39.0083 72.8115 38.7995C70.7824 38.5909 68.7824 39.0794 67.1779 40.176L47.0965 53.8989C45.492 54.9955 44.4757 56.5684 44.235 58.328C43.994 60.0875 44.5576 61.8232 45.8217 63.2151L75.3207 95.7003C76.8282 97.3598 79.0709 98.2263 81.336 98.2263C82.9924 98.2263 84.6608 97.7625 86.0596 96.8064L106.141 83.0834C107.746 81.9868 108.762 80.4139 109.003 78.6544C109.243 76.8948 108.68 75.1591 107.416 73.7672L77.9171 41.2818ZM100.812 72.0688L74.9636 89.7331L52.3287 64.807L78.1771 47.1428L100.812 72.0688ZM48.1835 58.7345C48.2991 57.8899 48.7868 57.1348 49.5571 56.6084L69.6386 42.8855C70.2922 42.4387 71.083 42.2021 71.9028 42.2021C72.0489 42.2021 72.1957 42.2097 72.3428 42.2248C73.3167 42.3251 74.187 42.7482 74.7937 43.4164L75.717 44.4333L49.8683 62.0975L48.9451 61.0809C48.3383 60.4122 48.068 59.5791 48.1835 58.7345ZM105.055 78.2476C104.939 79.0922 104.451 79.8473 103.681 80.3737L83.5992 94.0966C82.0095 95.1829 79.6968 94.9451 78.444 93.5657L77.424 92.4424L103.273 74.7783L104.293 75.9016C104.899 76.5699 105.17 77.403 105.055 78.2476Z" fill="black"/>
</g>
<defs>
<clipPath id="clip0">
<rect width="115.667" height="100.34" fill="white" transform="translate(0.100006 0.874146)"/>
</clipPath>
</defs>
</svg>
